# xmcd
#
# Track frame offsets: 
#        150
#        10657
#        19937
#        39435
#        55505
#        69257
#        80762
#        96745
#        118432
#        131025
#        146087
#        158895
#        171687
#        192632
#        212442
#        231980
#
# Disc length: 3291 seconds
#
# Revision: 11
# Processed by: cddbd v1.5.2PL0 Copyright (c) Steve Scherf et al.
# Submitted via: ExactAudioCopy v1.0b3
#
DISCID=ef0cd910
DTITLE=Willie Nelson - 16 Biggest Hits
DYEAR=1998
DGENRE=Country
TTITLE0=Blue Eyes Crying in the Rain
TTITLE1=If You've Got the Money, I've Got the Time
TTITLE2=Georgia On My Mind
TTITLE3=Blue Skies
TTITLE4=My Heroes Have Always Been Cowboys
TTITLE5=On the Road Again
TTITLE6=Always On My Mind
TTITLE7=City of New Orleans
TTITLE8=Forgiving You Was Easy
TTITLE9=Living in the Promiseland
TTITLE10=Midnight Rider
TTITLE11=Remember Me (When the Candlelights Are Gleaming)
TTITLE12=Uncloudy Day
TTITLE13=Angel Flying Too Close to the Ground
TTITLE14=The Last Thing I Needed First Thing This Morning
TTITLE15=Nothing I Can Do About It Now
EXTD=YEAR: 1998
EXTT0=
EXTT1=
EXTT2=
EXTT3=
EXTT4=
EXTT5=
EXTT6=
EXTT7=
EXTT8=
EXTT9=
EXTT10=
EXTT11=
EXTT12=
EXTT13=
EXTT14=
EXTT15=
PLAYORDER=
